<svg xmlns="http://www.w3.org/2000/svg" version="1.1" xmlns:xlink="http://www.w3.org/1999/xlink" xmlns:svgjs="http://svgjs.dev/svgjs" viewBox="0 0 2400 800"><defs><linearGradient x1="50%" y1="0%" x2="50%" y2="100%" id="oooscillate-grad"><stop stop-color="hsl(0, 0%, 100%)" stop-opacity="1" offset="0%"></stop><stop stop-color="hsl(0, 0%, 100%)" stop-opacity="1" offset="100%"></stop></linearGradient></defs><g stroke-width="5" stroke="url(#oooscillate-grad)" fill="none" stroke-linecap="round"><path d="M 0 280 Q 600 -100 1200 400 Q 1800 900 2400 280"></path><path d="M 0 245 Q 600 -100 1200 400 Q 1800 900 2400 245"></path><path d="M 0 210 Q 600 -100 1200 400 Q 1800 900 2400 210"></path><path d="M 0 175 Q 600 -100 1200 400 Q 1800 900 2400 175"></path><path d="M 0 140 Q 600 -100 1200 400 Q 1800 900 2400 140"></path><path d="M 0 105 Q 600 -100 1200 400 Q 1800 900 2400 105"></path><path d="M 0 70 Q 600 -100 1200 400 Q 1800 900 2400 70"></path></g></svg>